<?xml version="1.0" encoding="UTF-8" standalone="no"?>
<!-- Created with Inkscape (http://www.inkscape.org/) -->

<svg
   xmlns:dc="http://purl.org/dc/elements/1.1/"
   xmlns:cc="http://creativecommons.org/ns#"
   xmlns:rdf="http://www.w3.org/1999/02/22-rdf-syntax-ns#"
   xmlns:svg="http://www.w3.org/2000/svg"
   xmlns="http://www.w3.org/2000/svg"
   xmlns:sodipodi="http://sodipodi.sourceforge.net/DTD/sodipodi-0.dtd"
   xmlns:inkscape="http://www.inkscape.org/namespaces/inkscape"
   width="120mm"
   height="60mm"
   viewBox="-60 -60 120 60"
   sodipodi:docname="logo-webtech.svg"
   version="1.1"
   id="svg3802"
   inkscape:version="0.92.4 (5da689c313, 2019-01-14)">
  <defs
     id="defs3804" />
  <sodipodi:namedview
     pagecolor="#ffffff"
     bordercolor="#666666"
     borderopacity="1.0"
     inkscape:pageopacity="0.0"
     inkscape:pageshadow="2"
     inkscape:zoom="1"
     inkscape:cx="245.03389"
     inkscape:cy="106.77165"
     inkscape:document-units="mm"
     inkscape:current-layer="g4980"
     showgrid="false"
     units="mm"
     showguides="true"
     inkscape:guide-bbox="true"
     inkscape:snap-global="true"
     inkscape:snap-bbox="true"
     inkscape:snap-bbox-midpoints="true"
     inkscape:window-width="1920"
     inkscape:window-height="1001"
     inkscape:window-x="-9"
     inkscape:window-y="-9"
     inkscape:window-maximized="1"
     inkscape:bbox-paths="true"
     inkscape:bbox-nodes="true"
     inkscape:snap-bbox-edge-midpoints="true"
     inkscape:snap-grids="true"
     id="namedview3792">
    <sodipodi:guide
       orientation="1,0"
       position="226.771653543,226.771653543"
       id="guide2827"
       inkscape:locked="false" />
    <sodipodi:guide
       orientation="0,1"
       position="226.771653543,226.771653543"
       id="guide2829"
       inkscape:locked="false" />
    <inkscape:grid
       type="xygrid"
       id="grid3072"
       empspacing="10"
       visible="true"
       enabled="true"
       snapvisiblegridlinesonly="true"
       units="mm"
       dotted="false"
       spacingx="0.1mm"
       spacingy="0.1mm" />
  </sodipodi:namedview>
  <metadata
     id="metadata2822">
    <rdf:RDF>
      <cc:Work
         rdf:about="">
        <dc:format>image/svg+xml</dc:format>
        <dc:type
           rdf:resource="http://purl.org/dc/dcmitype/StillImage" />
        <dc:title></dc:title>
      </cc:Work>
    </rdf:RDF>
  </metadata>
  <g
     inkscape:label="Layer 1"
     inkscape:groupmode="layer"
     id="Template"
     style="fill:none;stroke:#000000;stroke-width:0.05"
     transform="translate(0,-60)">
    <g
       id="g4723"
       transform="matrix(0.116061,0,0,0.116061,-9.6538301,4.9992669)"
       style="fill:#eeeeee;fill-opacity:0;stroke-width:0.05169696;stroke-miterlimit:4;stroke-dasharray:none">
      <g
         id="g4668"
         style="fill:#eeeeee;fill-opacity:0;stroke-width:0.05169696;stroke-miterlimit:4;stroke-dasharray:none">
</g>
      <g
         id="g4670"
         style="fill:#eeeeee;fill-opacity:0;stroke-width:0.05169696;stroke-miterlimit:4;stroke-dasharray:none">
</g>
      <g
         id="g4672"
         style="fill:#eeeeee;fill-opacity:0;stroke-width:0.05169696;stroke-miterlimit:4;stroke-dasharray:none">
</g>
      <g
         id="g4674"
         style="fill:#eeeeee;fill-opacity:0;stroke-width:0.05169696;stroke-miterlimit:4;stroke-dasharray:none">
</g>
      <g
         id="g4676"
         style="fill:#eeeeee;fill-opacity:0;stroke-width:0.05169696;stroke-miterlimit:4;stroke-dasharray:none">
</g>
      <g
         id="g4678"
         style="fill:#eeeeee;fill-opacity:0;stroke-width:0.05169696;stroke-miterlimit:4;stroke-dasharray:none">
</g>
      <g
         id="g4680"
         style="fill:#eeeeee;fill-opacity:0;stroke-width:0.05169696;stroke-miterlimit:4;stroke-dasharray:none">
</g>
      <g
         id="g4682"
         style="fill:#eeeeee;fill-opacity:0;stroke-width:0.05169696;stroke-miterlimit:4;stroke-dasharray:none">
</g>
      <g
         id="g4684"
         style="fill:#eeeeee;fill-opacity:0;stroke-width:0.05169696;stroke-miterlimit:4;stroke-dasharray:none">
</g>
      <g
         id="g4686"
         style="fill:#eeeeee;fill-opacity:0;stroke-width:0.05169696;stroke-miterlimit:4;stroke-dasharray:none">
</g>
      <g
         id="g4688"
         style="fill:#eeeeee;fill-opacity:0;stroke-width:0.05169696;stroke-miterlimit:4;stroke-dasharray:none">
</g>
      <g
         id="g4690"
         style="fill:#eeeeee;fill-opacity:0;stroke-width:0.05169696;stroke-miterlimit:4;stroke-dasharray:none">
</g>
      <g
         id="g4692"
         style="fill:#eeeeee;fill-opacity:0;stroke-width:0.05169696;stroke-miterlimit:4;stroke-dasharray:none">
</g>
      <g
         id="g4694"
         style="fill:#eeeeee;fill-opacity:0;stroke-width:0.05169696;stroke-miterlimit:4;stroke-dasharray:none">
</g>
      <g
         id="g4696"
         style="fill:#eeeeee;fill-opacity:0;stroke-width:0.05169696;stroke-miterlimit:4;stroke-dasharray:none">
</g>
    </g>
    <g
       id="g4980"
       transform="matrix(0.16123807,0,0,0.16123807,-115.09172,47.66546)"
       style="fill:#eeeeee;fill-opacity:1">
      <g
         id="g4923"
         style="fill:#9f9f9f;fill-opacity:1"
         transform="matrix(0.70000571,0,0,0.70000571,345.48352,-246.48278)">
	<g
   id="g4921"
   style="fill:#9f9f9f;fill-opacity:1">
		<path
   id="path4919"
   d="M 216.64,0 C 96.993,0 0,96.993 0,216.64 0,336.287 96.993,433.28 216.64,433.28 336.287,433.28 433.28,336.287 433.28,216.64 433.148,97.048 336.232,0.132 216.64,0 Z m 200.48,208.64 h -61.6 c -0.565,-29.468 -5.25,-58.711 -13.92,-86.88 13.419,-6 26.18,-13.372 38.08,-22 22.913,31.823 35.935,69.695 37.44,108.88 z M 369.76,87.2 c -10.382,7.519 -21.475,14.003 -33.12,19.36 -10.611,-29.969 -28.282,-56.943 -51.52,-78.64 32.89,12.061 62.064,32.494 84.64,59.28 z m -97.2,137.44 h 67.04 c -0.548,27.407 -4.799,54.613 -12.64,80.88 -18.64,-6.955 -37.939,-11.994 -57.6,-15.04 2,-22.48 3.04,-45.12 3.2,-65.84 z m -3.12,-81.84 c 19.661,-3.046 38.96,-8.085 57.6,-15.04 7.786,26.274 11.984,53.481 12.48,80.88 h -66.88 c 0,-20.64 -1.28,-43.28 -3.2,-65.84 z m 52.32,-30.16 c -17.471,6.564 -35.564,11.336 -54,14.24 C 263.12,84 254.8,43.52 241.92,20.24 c 33.76,11.6 62.72,45.76 79.84,92.4 z m -65.12,112 c 0,23.28 -1.2,44.56 -2.8,64 -24.621,-2.671 -49.459,-2.671 -74.08,0 -1.6,-19.12 -2.56,-40.4 -2.8,-64 z m -80,-16 c 0,-23.28 1.2,-44.56 2.8,-64 12.301,1.338 24.666,2.006 37.04,2 12.427,0.011 24.846,-0.656 37.2,-2 1.6,19.12 2.56,40.4 2.8,64 z M 216.64,16 c 10.4,0 27.6,38.56 35.6,113.04 -11.823,1.288 -23.707,1.929 -35.6,1.92 -11.9,-0.124 -23.784,-0.898 -35.6,-2.32 8,-74.08 25.2,-112.64 35.6,-112.64 z m -25.28,4.24 v 0.08 c -12.88,23.28 -21.2,64 -25.84,106.64 -18.439,-2.93 -36.532,-7.728 -54,-14.32 17.12,-46.64 46.08,-80.8 79.84,-92.4 z m -30.72,188.4 H 93.76 c 0.548,-27.407 4.799,-54.613 12.64,-80.88 18.64,6.955 37.939,11.994 57.6,15.04 -2,22.56 -3.36,45.2 -3.36,65.84 z m 3.36,81.84 h -0.16 c -19.661,3.046 -38.96,8.085 -57.6,15.04 -7.786,-26.274 -11.984,-53.481 -12.48,-80.88 h 66.88 c 0,20.64 1.36,43.28 3.36,65.84 z M 148.48,27.92 C 125.126,49.582 107.343,76.558 96.64,106.56 84.881,101.196 73.68,94.685 63.2,87.12 85.964,60.272 115.368,39.86 148.48,27.92 Z m -94.8,71.84 v 0.16 c 11.9,8.628 24.661,16 38.08,22 -8.682,28.114 -13.395,57.302 -14,86.72 H 16.16 C 17.688,169.447 30.739,131.574 53.68,99.76 Z M 53.6,333.52 C 30.687,301.697 17.665,263.825 16.16,224.64 h 61.6 c 0.565,29.468 5.25,58.711 13.92,86.88 -13.419,5.998 -26.181,13.371 -38.08,22 z m 9.92,12.56 c 10.383,-7.517 21.476,-14.001 33.12,-19.36 10.599,29.998 28.272,57 51.52,78.72 -32.898,-12.084 -62.073,-32.545 -84.64,-59.36 z m 48,-25.44 c 17.471,-6.564 35.564,-11.336 54,-14.24 4.64,42.88 12.96,83.36 25.84,106.64 -33.76,-11.6 -62.72,-45.76 -79.84,-92.4 z m 105.12,96.64 c -10.4,0 -27.6,-38.56 -35.6,-113.04 23.636,-2.583 47.484,-2.583 71.12,0 -7.92,74.48 -25.12,113.04 -35.52,113.04 z m 25.28,-4.24 v -0.08 c 12.88,-23.28 21.2,-64 25.84,-106.64 18.439,2.93 36.532,7.728 54,14.32 -17.12,46.64 -46.08,80.8 -79.84,92.4 z m 42.88,-7.68 v -0.4 c 23.301,-21.548 41.08,-48.382 51.84,-78.24 11.759,5.364 22.96,11.875 33.44,19.44 -22.764,26.848 -52.168,47.26 -85.28,59.2 z m 94.8,-71.84 v -0.56 c -11.9,-8.628 -24.661,-16 -38.08,-22 8.646,-27.985 13.357,-57.037 14,-86.32 h 61.6 c -1.528,39.193 -14.579,77.066 -37.52,108.88 z"
   inkscape:connector-curvature="0"
   style="fill:#9f9f9f;fill-opacity:1" />

	</g>

</g>
      <g
         id="g4925"
         style="fill:#eeeeee;fill-opacity:1">
</g>
      <g
         id="g4927"
         style="fill:#eeeeee;fill-opacity:1">
</g>
      <g
         id="g4929"
         style="fill:#eeeeee;fill-opacity:1">
</g>
      <g
         id="g4931"
         style="fill:#eeeeee;fill-opacity:1">
</g>
      <g
         id="g4933"
         style="fill:#eeeeee;fill-opacity:1">
</g>
      <g
         id="g4935"
         style="fill:#eeeeee;fill-opacity:1">
</g>
      <g
         id="g4937"
         style="fill:#eeeeee;fill-opacity:1">
</g>
      <g
         id="g4939"
         style="fill:#eeeeee;fill-opacity:1">
</g>
      <g
         id="g4941"
         style="fill:#eeeeee;fill-opacity:1">
</g>
      <g
         id="g4943"
         style="fill:#eeeeee;fill-opacity:1">
</g>
      <g
         id="g4945"
         style="fill:#eeeeee;fill-opacity:1">
</g>
      <g
         id="g4947"
         style="fill:#eeeeee;fill-opacity:1">
</g>
      <g
         id="g4949"
         style="fill:#eeeeee;fill-opacity:1">
</g>
      <g
         id="g4951"
         style="fill:#eeeeee;fill-opacity:1">
</g>
      <g
         id="g4953"
         style="fill:#eeeeee;fill-opacity:1">
</g>
    </g>
    <text
       xml:space="preserve"
       style="font-style:normal;font-variant:normal;font-weight:normal;font-stretch:normal;font-size:31.75px;line-height:1.25;font-family:'Tw Cen MT Condensed';-inkscape-font-specification:'Tw Cen MT Condensed, ';letter-spacing:0px;word-spacing:0px;fill:#0030c6;fill-opacity:1;stroke:none;stroke-width:0.01322917"
       x="20.893946"
       y="56.42606"
       id="text3812"><tspan
         sodipodi:role="line"
         id="tspan3810"
         x="20.893946"
         y="56.42606"
         style="font-style:normal;font-variant:normal;font-weight:normal;font-stretch:normal;font-size:31.75px;font-family:'Tw Cen MT Condensed';-inkscape-font-specification:'Tw Cen MT Condensed, ';fill:#51baa4;fill-opacity:1;stroke-width:0.01322917">tech</tspan></text>
    <text
       xml:space="preserve"
       style="font-style:normal;font-weight:normal;font-size:45.8611145px;line-height:1.25;font-family:sans-serif;letter-spacing:0px;word-spacing:0px;fill:#000000;fill-opacity:1;stroke:none;stroke-width:0.01322917"
       x="-43.331253"
       y="56.560417"
       id="text3808"><tspan
         sodipodi:role="line"
         id="tspan3806"
         x="-43.331253"
         y="56.560417"
         style="font-style:normal;font-variant:normal;font-weight:normal;font-stretch:normal;font-size:45.8611145px;font-family:'Rockwell Condensed';-inkscape-font-specification:'Rockwell Condensed, ';fill:#ffffff;stroke-width:0.01322917">WEB</tspan></text>
  </g>
</svg>
